<?xml version="1.0" encoding="utf-8"?>
<!-- Generator: Adobe Illustrator 27.6.1, SVG Export Plug-In . SVG Version: 6.00 Build 0)  -->
<svg version="1.1" id="Layer_1" xmlns="http://www.w3.org/2000/svg" xmlns:xlink="http://www.w3.org/1999/xlink" x="0px" y="0px"
	 viewBox="0 0 2360 1640" style="enable-background:new 0 0 2360 1640;" xml:space="preserve">
<g>
	<path d="M1016.7,671.3c-1.2,1.6-2.3,4.5-3.7,4.7c-15.1,1.6-15.7,12.5-18.7,24.3c-3.8,14.6-8.1,29.7-16.3,42.9
		c-1.7,2.8-4.2,4.7-7,3.6c-8.1-3.2-16.7-2.1-25.1-5.7c-11.2-4.8-23.6-8.1-35.8-10.2c-13.3-2.3-24.8-8.6-37.4-12.4
		c-7.2-2.1-14.6-3.9-21.7-3.7c-3.2,3.3,3.9,4.8,0.7,7.2c-2.8,2-6,0.2-9-0.8c-12.8-4-23.6-13.7-38.8-12.7c1.6,3.7,4.8,4.7,7.8,5.9
		c17.6,7.2,33.6,16.9,46.5,31.1c3.6,4,8.8,3.1,13,5c6.4,2.9,11.8,7.4,17.4,11.6c4.8,3.6,9.5,7.4,15.8,8.1c3.2,0.4,6.4,1.8,8,4.7
		c4.8,9.2,14.9,11.3,22.2,17.1c1.1,0.8,3,0.8,4.5,0.8c15.4-0.8,28.9,7.6,44.1,7.9c0.7,1.2,1.4,2.3,2.1,3.5
		c-6.7,5.7-13.2,11.5-20,17.1c-3,2.5-4,4.7-0.5,7.5c6.6,5.1,2.8,9.1-2.1,11.4c-15.3,7.4-28.8,17.9-44.3,25.1
		c-16.2,7.6-30.7,19.2-47.1,26.1c-20.4,8.5-37.6,22.5-58,31c-18.2,7.6-35.3,17.8-52.9,27.1c-6.2,3.3-6.9,12.5-5.1,22
		c3.1,16.3,12.1,30.9,12.6,48c0.2,7.9,6.4,3.3,10,2.4c3.8-0.9,6.2-6.4,11.4-2.1c4.6,3.8,2.7,7.7,1.6,12c-1.7,6.5,0.4,8.2,7.7,9.6
		c17.1,3.3,21-10.5,28.5-19.3c12.2-14.4,26.1-27.2,40.6-39c4-3.3,4.5-7.7,8.1-10.9c9.4-8.4,22.2-11.2,31.4-19.2
		c8.1-7,18.2-10.1,26.2-17.2c8.1-7.1,16.3-14.5,27.1-18.2c10.2-3.5,18.4-11.2,26-18.3c10-9.4,21.1-6.6,32.2-6.7c3,0,4.5,16,1.1,18.6
		c-7.3,5.6-7.6,13.3-8.1,21.3c-0.2,3.1-0.5,5.5-3.1,8.3c-20.8,21.9-42.5,42.9-65.6,62.1c-13,10.8-24.5,22.6-35.8,34.9
		c-0.6,0.7-1.7,1.1-2.1,1.9c-5.8,11.2-11,22.6-19.8,32c-1.1,1.2-1.2,4.8,0.2,7.3c4,6.5,4.5,13.6,4.1,20.9
		c-0.6,10.4,2.5,19.6,6.2,29.2c6.3,16.1,11.8,32.6,18.1,48.8c2,5-0.9,10-1.4,14.9c-1.7,18.8-1.2,38.6,5.1,55.5
		c9.2,24.6,8.9,52,23.1,74.9c1.2,1.9,2.1,4.2,1.9,7.1c-1.1,13.3,6.8,24.3,9.6,36.5c2.5,10.7,8.3,20.1,9.9,30.9
		c1.5,10.5,5.7,20,10.9,29.1c4.3,7.5,8,14.3-0.9,21.5c-4,3.2-5.2,9.6-3.9,14.1c2.2,7.5-0.9,16.6,6.8,22.8c1.8,1.5,1.5,6,1.7,9.1
		c0.2,4.2,0.5,8.1,3.4,11.6c4.8,5.7,6.8,12.1,3.9,19.4c-1.7,4.1,3.6,5.6,3.4,8c-1,12.3,9.8,19.4,12.4,29.9c0.6,2.4,1.3,4.8-0.7,8.4
		c-10-19.9-29.7-31.6-37-52.7c-2.8-8-7.6-15.7-13.9-21.2c-12.8-11.3-16.2-26.9-23.3-41.1c-5.4-10.8-8.1-23.5-15-32.4
		c-9.4-12.1-11.7-25.7-16.4-39c-1.1-3.1-2.7-5.7-4.6-8.2c-3.2-4.1-5.5-7.4-3.3-14.1c2.3-6.9-4.6-13.6-8-20.2
		c-6.4-12.3-12.6-24.6-16.7-38c-3.7-12.1-4.7-25.4-14.3-35.2c-5.9-6-6.5-14.5-7.7-21.8c-1.4-8.4-5.4-15.2-8.2-22.8
		c-8.3-22-20.9-41.9-27.9-64.6c-3.9-12.5-13.2-23.4-20.1-34.9c-0.5-0.8-1.2-1.5-2-2c-4.1-2.6-9-5.8-13.1-4c-3.1,1.3-2,7.4-1.7,11.1
		c0.6,8.5,1.8,16.9,3.5,25.2c2.6,12.6,3.5,25.9,7.1,37.7c4.9,16.2,9.4,32.7,14.4,48.8c4.5,14.4,9.1,29.2,11.6,44.6
		c2.4,14.6,2.1,30,9.4,44c7.6,14.6,9,31.5,15.9,46.7c4.6,10,4.2,21.7,8,32.3c1.2,3.5,2.9,6.9,4.4,10c5.9,11.8,5.8,25.5,13,36.8
		c4.2,6.6,5,14.7,5.8,23.2c-5.8-2.6-7.4-7.6-9.1-12.1c-3.1-8.5-8.6-15.3-14.2-22.1c-16.9-20.3-36.4-38.4-51.2-60.6
		c-5.7-8.6-9.3-17.5-13.2-26.6c-10.1-23-21.7-45.2-31.2-68.5c-4.2-10.5-6.4-21.9-13.2-31.3c-0.4-0.5-0.9-1.2-0.7-1.7
		c5.7-19.6-6.2-35.7-12.7-51.8c-6.6-16.4-9.7-33.6-16-50.1c-12.8-33.8-20.4-69.4-33-103.4c-3.3-9-3-19.3-6-28.4
		c-5.5-16.7-6.8-34.1-9-51.2c-1.1-8.1,0-16.1,11-19c5.8-1.5,10.5-6.7,16.2-9.6c8.3-4.3,17.9-2.4,26.4-6.5c2.9-1.4,9,3.1,13.4,5.4
		c8,4.1,14,3.1,18.9-5.1c9.1-15.3,23.4-24.3,38.9-32.2c17.1-8.7,34.9-16.1,50.8-27c11.4-7.8,20.1-19,31.9-26.4
		c12-7.6,20.8-19.3,34.3-25.5c5.6-2.5,10.9-7.2,16.6-10.6c3.1-1.9,5.4-5.1,4.6-8.8c-0.9-3.8-4.8-1.8-7.4-2.1
		c-17.3-2.1-34.6-3.3-52-0.2c-5,0.9-9.9,0-14.7-2.6c-4.6-2.5-8.9-3.7-14.8-0.2c-4.6,2.7-11.9,0.1-17.7,1.3
		c-15.7,3.3-31.6-0.5-47.6,2.7c-12.2,2.5-26.2-0.8-35.9-11.6c-5.4-6.1-11.5-1.8-16.7,0c-4.2,1.5-7.1,2.2-11.3-0.3
		c-7.2-4.4-16.1-1.7-23.9-5c-4.3-1.8-3.9,3.5-4.2,6.3c-3,22.7-3.6,45.5-3.5,68.3c0,5.2-1.1,10.1-2.5,14.9c-0.5,1.9-0.5,5.6-4.4,5
		c-3.3-0.5-2.3-3.2-2.7-5.2c-0.4-2.2-1-4.3-1.8-7.5c-8.9,8.5-11.2-0.1-13.1-5.3c-2.8-7.6-6.2-15.2-6.4-23.6
		c-0.7-21.4-7.4-42.1-7.6-63.7c-0.2-23.2,1.2-46.4,2.7-69.4c1.6-23.9,8.4-47.4,12.7-71.2c4.1-22.1,7.1-44.4,14.2-65.8
		c5.6-16.9,10.6-34.3,27.9-44.5c8.7-5.2,12.6-16.4,22.7-20.8c2.2-1,2.4-3.6,2.2-5.9c-1.2-15.4,10.8-21.5,20.8-28.9
		c1.2-0.9,3-0.9,4.5-1.2c1,6.9,10,9.5,10.4,14.8c1,14.6-0.1,28.9-6.5,43.3c-4.2,9.6-10,22-3,34.1c2.8,4.8,2.1,10.5,1.6,15.9
		c-1.2,13.9-2.4,27.7-3.7,41.6c-0.5,5,0.5,9,4.2,12.8c8,8,12.5,17.4,8.9,29.2c-1.9,6.1,4.2,6.7,6.8,6.7c16,0.3,30.3,7.9,45.7,9.9
		c5.1,0.7,7,2.8,8.6,7c4.5,12,8.6,13.2,17.9,5.2c2.2-1.9,3.6-1.7,5.8-0.8c13.4,5.5,28.2,5.2,41.9,9.6c1.5,0.5,3.8-0.4,4.6,0.4
		c10.1,9.6,24.6,7.1,35.8,13.6c4.1,2.4,24.8,3.6,36.8,1.7c-14.3-5.7-21.3-16.6-32.1-23.2c-12.1-7.4-25.1-13.3-36.8-21.3
		c-9.4-6.4-20.1-10.9-29.9-16.9c-7.3-4.5-14.2-9.4-23.4-7.7c-0.3,0.1-0.9,0-0.9-0.1c-1.8-12.2-14.7-9.8-21.1-15.9
		c-0.5-0.4-1.1-0.9-1.3-1.4c-3.5-13.6-14.8-22.8-19.4-35.8c-3.5-9.9,1.6-18.1,4.6-26.7c0.7-2,2.7-3.9,2.9-5.8
		c1.8-32.7,15.3-62.6,21.7-94.2c0.2-0.9,1.3-1.9,1.1-2.6c-5.8-20.8,11.1-36.4,12.8-55.7c2.3-25.3,11.7-49.3,18.9-73.5
		c5.3-17.7,5.7-36.4,13.4-53.4c1.9-4.3,4.7-10-0.4-15c-0.8-0.7-0.7-3.4,0.1-4.4c5.9-7.9,6.7-18.3,13.3-26
		c5.7-6.7,9.9-14.5,10.8-23.8c1.3-13.1,7.2-26.5,14.4-35.1c12.5-14.9,18.3-34.2,33.5-46.8c6.4-5.3,8.2-13.2,11.3-20.3
		c6.3-14.4,17-25.5,27-37.3c2-2.3,4.4-2.7,6.8-1.8c3.2,1.1,1.7,3.9,1,5.6c-7.7,19.7-7.2,41.7-15.2,60.9
		c-7.5,17.9-12.8,36.7-22.5,53.8c-7.7,13.5-11.9,29-18.1,43.5c-4.7,10.9-9.3,21.9-15.5,32.2c-6.9,11.5-3.8,24.6-2.7,37.1
		c0.4,5.1,6,1.5,8.9,3.9c-2.2,4.6-1.2,9.9-2.5,14.6c-1.8,6.4-3.2,10.6,6,9.3c4.4-0.6,3.2,2.6,2.7,5c-3.4,16.1-5.4,32.3-13.1,47.7
		c-5.3,10.6-8,23.6-8.1,35.6c-0.1,12.9-6.3,23.9-7,36.5c-1.6,26.7-8.8,53.3-4.5,80.1c2.4,15.3,9.9,28.7,25,36.9
		c14.3,7.7,24.2,21.2,36.7,31.3c20.3,16.5,39.5,34.7,64.8,44.2c7.2,2.7,9.1,0.1,8.5-5.9c-0.7-7,3.4-11.5,6.1-17.1
		c4.2-8.6,9.5-17.4,9-27.5c-0.1-3-0.3-5.7,1.9-7.9c1.7-1.7,3-4.7,6-3.8c3,0.9,4.3,3.4,4.1,6.7c-0.4,5.8,0.1,11.2,4.5,15.8
		c4.8,5,12.1,2.5,17.4,6.6c6.4,5,11.5,0.5,16.7-3.7c5.5-4.4,17.8,0.1,20.1,6.8c0.7,1.9-0.7,5.1,2.3,5.6c3.4,0.6,3.6-3,4.9-4.9
		c3.2-4.5,7.3-8.1,6.9-14.9c-0.3-5.3,4.8-7,8.6-3.4c3.4,3.2,7,6.3,8.7,11.7c3.2,10,12.9,15.1,20.8,21.2c1.7,1.3,4.6,1,7-1
		c11.1-9,14.5-9,25.1,1.9c4.9,5,7.8,7.7,12.6-0.2c3.3-5.5,8.3-5,11.9,0.8c2.7,4.3,4.9,8.9,7.9,12.9c4.8,6.5,10.6,7.6,16.9,1.8
		c4-3.7,7.8-7.5,11.9-10.9c5.6-4.7,11.1-9.3,19.3-8.7c5.6,0.4,10.3-1.2,11.8-8.3c0.9-4.4,5-7.3,8.7-9.8
		c12.7-8.8,25.6-17.2,38.1-26.2c5.8-4.2,7.3-11.8,11.8-17.4c4.2-5.2,1.2-13.4-0.9-20.8c-2.5-8.7-2.2-18.7-0.9-27.8
		c1.8-12.9-5.6-23.5-7-35.6c-2.7-22.3-8.2-44.2-12.1-66.4c-0.8-4.5-2.4-10.8,1-13.6c3.5-2.9,8.1,3.6,13.4,2.8
		c-2-17.8-5.4-35.1-9.1-52.4c-0.3-1.5-0.9-3.6-2-4.1c-14.6-7-20.8-18.4-23.3-34.5c-3-19.2-9.4-37.9-14.8-56.7
		c-1.3-4.6-2.1-8.6,0.2-12.7c6.4-11,3.2-22.7-0.6-32.7c-4.4-11.7-5.1-23.3-6.1-35.2c-0.8-10.2-3-19.9-7.2-29.2
		c-1.6-3.4-1.2-6.8-1.1-10.2c4.2-1.8,6.7,2.5,10.6,2.8c1.1-14.1-0.9-26.3-7.5-39.6c-7.3-14.7-16.8-30.3-13.5-48.7
		c2.3,6.1,9.2,9.6,8.6,17.5c-0.3,4,4.6,6.5,6.8,9.9c11.3,18.3,22,36.9,31.5,56.3c1,2,2.3,3.6,4.1,5c8,6.4,11.9,15.9,13.8,25.1
		c1.5,7.1,4.9,13.7,7.9,19c6.1,11,8,23.4,12.7,34.6c8.3,19.8,10.5,42.1,16.6,62.9c4.9,16.7,7.2,34,11.3,50.9
		c4.2,17,8.1,34.6,11.9,51.9c3.5,16,5,32.7,12.7,47.8c4.9,9.8,2.8,21.7,7.7,32c5.1,10.9,9.1,22.3,7.6,34.7c-0.5,4,2.8,6.2,3.9,9.5
		c3.7,11.3,9.5,22.1,7.8,34.7c-0.6,4.3,1.4,8.2,3.8,11.5c12.5,17.4,10.4,37.7,11.3,57.4c0.2,4.6-4,6.7-7.5,8.8
		c-7.8,4.5-12.5,11.3-15.2,19.9c-3.5,11.3-20,23.3-32,23.2c-5.2-0.1-9.2,1.2-12.3,5.5c-1.5,2-3.3,3.7-6,4.3
		c-5.7,1.3-11.2,2.6-15.2,7.9c-1.8,2.4-6.2,4.9-10.3,2.4c-3.6-2.2-4.4-5.7-4.4-9.8c0-13.9-3.4-27-10.4-39.2c-1.3-2.2-0.7-5.5-1-8.3
		c-0.2-2.1,0.8-4.7-1.8-5.9c-2.6-1.1-4.6,0.3-7,1.5c-5.7,2.7-6.3,9-10.3,13c-5.1,5.1-9.1,11.1-15.4,15.3c-5.8,3.8-4.9,8.1,1.8,11.4
		c5.3,2.6,5.7,6,1.3,9.3c-3.9,2.9-7.4,7.8-13.3,5.7c-4.7-1.6-8.8-1.8-11.8,2.6c-2.8,4.1-5.3,8.6,0.6,13c-1.9,0-3.8,0.2-5.6,0
		c-7.2-0.8-9.2,8.2-15.1,8.5c-5.9,0.3-7.6-9.1-14.1-8.5c-6.4,0.6-11.6,4.2-16.2,8.5c-13.5,12.4-28.2,23.1-44,32.3
		c-1.1,0.6-2,1.7-3.1,2.2c-4.6,2.2-7.5,11.6-12.5,7.4c-5.5-4.6-12-9.2-13.4-19.1c-2.1-14-4-28.4-8.5-42.2c-1.1-3.4-2-5-5.5-4.6
		c-1.6,0.2-3.2,0.3-4.8,0.1c-11.7-1.5-16,2.1-16.7,14.2c-0.3,5.1-0.3,10.2,0,15.3c0.2,4.4-3.1,6.2-5.9,7.9c-4.2,2.5-4.3-2.5-5.7-4.3
		c-6.5-8.1-14.8-14.4-21-22.8c-4.8-6.5-17-6.3-21.5,0.6c-5.4,8.5-13.4,13.6-21.5,18.5c-5.9,3.6-7.3-3.4-7.7-6.2
		c-0.9-6.6-3.4-12.8-4.1-19.3C1021.3,678.8,1019.6,675,1016.7,671.3z"/>
	<path d="M1113,973.4c2.3-5.3,3.2-10.7,8.5-13.5c2.6-1.4,3.5-3.7,3-6.4c-1.5-9.2,3.9-8.6,10.3-7.7c6.6,0.9,13.2,5.3,19.9,0.6
		c1.5-1,2.6-0.2,3.1,0.8c3.3,6.6,11.1,9.9,13,17.1c1.9,7.1,7.1,7.1,11.6,5.4c10.7-4.2,21.2-9.1,31.4-14.5c2.5-1.3,2.9-1.9,5,0.3
		c8.1,8.6,18.8,13.4,29.4,17.8c6.4,2.6,10.6,7.6,15.5,11.7c5.9,4.9,13.4,7.2,18.6,13.1c1.8,2,5.6,0.9,8.5-1.5c5-4,10.5-0.3,8.9,4
		c-5,13,6.2,15.3,12.3,19.5c11.5,8,23,16.1,34.7,23.8c6.7,4.5,10.8,12.5,19.7,14.3c3.6,0.7,8.8,19.5,7.2,23.4
		c-3.4,8.4-3.3,17.4,2.3,23.8c5.7,6.6,5.2,12.8,2.6,19.2c-6.3,15.5-1.9,32.4-7.2,48.1c-3.3,9.8-5.4,20.3-5.4,31.1
		c12.2-10.4,13.6-26.1,17.8-39.5c4.4-13.8,11.4-26.2,16.3-39.6c5.5-15.2,13.4-29.5,18.1-45c3.4-11,5.8-22.4,7.9-33.8
		c0.8-4.4,1.7-8.7-4.6-12.5c-9.4-5.5-14.3-17.2-27.2-18.9c-3.6-0.5-8.2-6.8-3.8-11.5c8.6-9.3-0.6-14.4-4.5-19.8
		c-4.2-5.9-12.4-8.8-13.4-17.4c-0.2-1.9-2.8-2.2-4.6-2.8c-2.9-1.1-6.2-2-8.2-4.1c-12-12.4-27.5-18-43.3-23.7
		c-7.9-2.9-14.8-9.1-21.6-14.6c-7.4-6-14.8-11.1-24.9-11.9c-7.1-0.6-12.7-6-17.4-11c-3.5-3.7-6.3-6.9-11.3-9.1
		c-6.3-2.8-8.3-10.9-14.3-15.3c-2.9-2.1,3.3-5.1,5.4-5.4c10.3-1.4,19.4-7,30-7.5c17-0.9,32.5-8.6,49.2-11.4c6.7-1.1,13.5-1,20.1-4.3
		c4.5-2.2,10.4,1.6,15.7,3.1c18.9,5.4,28.6,25.8,48.8,28.3c6.5,0.8,10,7.3,15.5,10.4c20.3,11.5,41.3,21.5,61.1,33.7
		c10.4,6.4,22,7,33.8,4.1c3.1-0.8,5.4-2.1,5.8-5.4c1.1-8.5,4.8-6.9,8.7-2.1c4.9,6,12.5,9.6,14.9,18c1.1,3.8,6.1,4.2,9.8,4.5
		c4.4,0.4,8.9,0,13.3,0.2c15.8,0.6,26.7,10.8,25.3,26.6c-1.1,12.6,8.3,22.7,6,34.9c-2.9,14.6-2.5,29.7-7.1,44.1
		c-3.1,9.7-1.9,21.3-6.6,29.8c-6.6,11.9-8.4,26.4-19.3,35.9c-1.7,1.4-4.3,2.9-4.5,4.7c-2.5,17.4-13,32.9-12.8,50.8
		c0.1,4.9-2.5,8.3-3.6,12.4c-7.3,26.2-14,52.6-23.1,78.2c-4.2,11.8-8.8,23.9-12.6,35.6c-6.2,19.3-15.7,37.3-21.3,56.8
		c-3.3,11.5-10.7,21.9-13.8,33.4c-5.5,20.5-16.1,38.5-24.8,57.5c-10,21.8-25.1,40.5-34.1,62.7c-3.8,9.2-10.7,16.3-16.3,24.3
		c-2.8,4.1-6.9,8-11.9,4.9c-4.6-3-5.2-8.6-2.6-13.7c6.5-12.7,10.1-26.5,13.1-40.2c3.7-16.8,12.7-31.5,16.6-47.7
		c6.4-26.2,16.2-51.3,21.3-77.9c6.4-33.3,14-66.4,22.6-99.1c6.2-23.5,10.1-47.3,13.9-71.2c0.9-5.6,2.3-11.1,3.5-16.6
		c0.2-0.9,1.2-2,1-2.6c-7.9-16.4,8.6-27.5,8.9-42c0.3-14.2,6.6-28.2,0.9-42.5c-1.3-3.3-2.8-6.2-5.4-9.1c-2.1,2.3-6.3,3.7-5.8,6.8
		c2.7,14.5-8.7,25.8-8.5,40.1c0.1,9.3-4.2,18.9-7.9,27.8c-1.3,3-6.5,4.2-8.7,8.1c-3.3,5.9-9.1,10.5-6.1,18.6c0.7,1.9-0.4,6-2,7
		c-12.1,7.6-9.6,23.9-20,32.4c-1.3,1-2.1,3.6-1.9,5.2c2.3,14.3-9.4,23.7-13.1,36c-4.3,14.2-10.9,28.1-15.8,42.3
		c-6.3,18.4-10,37.6-16.6,55.9c-8.4,23-18.3,45.6-27,68.4c-11.6,30.4-29.7,57.3-42.2,87.2c-5.3,12.9-16,23.2-28,31.4
		c-1.7,1.2-3.6,3.2-5.8,0.8c-1.4-1.6-1.2-3.5-0.1-5.3c3.8-6.4,2.7-14,5.5-20.9c-5.4,4.9-10.4,9.9-17.6,14.4
		c1.6-6.7,1.9-12.7,4.4-17.6c7.1-13.9,7.1-29.9,13.7-44c1.4-3.1,2.3-6.7,2.3-10.1c0.3-14.7,9.1-26.6,12.2-40.3
		c2.3-10.1,9.8-17.9,11.5-28.2c0.1-0.6,0.4-1.3,0.8-1.7c11-11.1,8.7-25.2,8-38.5c-0.3-5.7,3.7-9,4.5-14c1.1-7,7.8-12.8,4.7-20.9
		c9.7-5.9,8.3-17,10.7-25.7c6.7-23.9,16.1-46.8,23-70.5c3.9-13.5,9.2-26.7,11.3-40.9c1.6-10.3,6.8-20.1,8.5-30.7
		c1.2-7,1.8-13.8-4.8-19c-4.1-3.3-5-7.2-2.8-12.6c2.6-6.4,2.6-13.5,2.6-20.5c0-5.7-3-8.8-7.2-11.2c-2-1.1-4.6-1.5-6,0.7
		c-2.6,4-5.2,8.1-3.7,13.3c0.8,2.8,4.4,6.3,1.5,8.2c-3.9,2.6-7-1.8-9.4-4.5c-8.7-9.8-20.9-16.5-25.9-29.9c-1.1-3.1-6.3-4.9-9.8-6.9
		c-3-1.8-8.4-2.6-8.9-4.8c-3.7-16.7-23-18.6-29.8-32.2c-1.6-3.3-4.6-6-9.2-5.5c-1.3,0.1-3.8-1-4-2c-2.6-12.1-16.4-12.8-21.9-22.1
		c-2.1-3.5-6.3-5.8-10.8-3.8c-4.2,1.8-3.9,6.1-4,9.9c-0.6,12.2-8.2,22.2-10.5,34.1c-2.8,14.5-11.5,26.6-19.7,38.8
		c-5.2,7.6-12.3,12.7-19.9,17c-2.9,1.6-7.6,2.6-10.8-0.5c-3.7-3.5-1.1-6.7,0.8-10.1c6.6-12,3.9-25.9,7.2-38.6
		c2.9-10.9,1.1-21.3-2.2-31.6C1150.3,987.6,1136.9,974.3,1113,973.4z"/>
	<path d="M1300.7,742.2c-9.7-3.5-17.5,1.9-25.7,2.9c-0.5-3.3,0.3-6.1,2.3-6.6c10.3-2.4,18.5-12,30.2-9c8.3,2.1,13.6-4.9,21.2-5.8
		c19.1-2.4,38.2-5.9,57-10.2c9.2-2.1,19.3-2.4,27.1-9.1c0.9-0.7,2.4-1.3,3.5-1.1c17.4,3.4,32-10,49.1-8.2c2.1,0.2,3.7-1.2,4.8-2.7
		c3.4-4.8,8.2-6.3,13.8-6.5c6.6-0.3,11.3-5.1,16.9-8.3c-1.6-1.2-8.6-0.4-2.5-5.1c2-1.5,4.3-2.5,6.4-3.8c3.7-2.2,7.3-5.4,6.6-9.7
		c-2-12.5,1.1-25.3-2.7-37.7c-1.3-4.2-3.3-7.1-5.6-10.5c-4-5.8-4.8-12.7,0.3-18.2c2.8-3,1.4-5.9,0.1-7.4c-4.6-5.3-3.6-10.2-0.8-15.7
		c2.2-4.3,3.3-7.8-1.3-12.5c-4.7-4.7-4.6-12.4-4.2-18.9c1.1-22.2-3.5-43.2-12.8-63.2c-0.3-0.6-0.9-1.3-0.7-1.7
		c7.5-17.9-10.6-29.8-10.9-46.9c-0.3-17-8.6-33.8-13.2-50.8c-0.8-3-1.2-6.3-0.9-9.4c0.6-7.6-0.8-14.5-5.6-20.5
		c-5.1-6.5-4.7-14.4-4.5-21.7c0.3-12.2-4.1-23.3-6.6-34.9c-1.3-5.9-2.7-11.7-2.4-17.8c0.5-10,0.1-19.6-7.9-27.2
		c-3.1-2.9-2.7-7.6-1.2-10.7c1.8-3.5,6.5-4.5,10.1-3.1c7.9,3.1,16.4,0.5,24.3,3.4c5.5,2,9-3.8,14.8-5.1c0.2,17,12.7,30.1,13.4,47.7
		c0.4,9.6-0.8,22.6,11,29.7c4,2.4,2.1,8.3,3.3,12.5c5.5,19.6,13.5,38.9,10.2,60c-0.2,1.2-0.5,3.2,0.1,3.7c10.1,8,7.3,20.9,11.5,31.1
		c4.2,10.1,5.6,21.5,7.2,32.5c0.7,4.3,2,7.9,4,11.5c2.9,5.3,6.1,10.2,6,16.7c-0.1,4.3,3.2,7.5,6,10.5c10.5,11.3,11.3,12.5,15.8,28.1
		c-6.7-6.8-14.1-14.2-21.4-21.6c-0.9,0.7-1.8,1.4-2.8,2c7,14.2,13.4,28.6,21,42.4c7.9,14.4,13.7,30,22,43.9
		c12.1,20.3,17.9,43.8,33.5,62.1c1.6,1.9,3.8,3.3,5.9,4.6c2.2,1.4,3.6,2.5,1.4,5.1c-5.6,6.6-5,13.3-0.1,19.9
		c8.4,11.5,13.3,24,13.3,38.6c0,4.4-2.8,5.4-4.9,7.2c-3.8,3.2-7.1,6.3-6,11.9c1.2,6-1.5,7.4-7.3,7.3c-15.5-0.2-20.2,7.9-13.1,22
		c2.3,4.6,1.6,7.3-3.6,8.1c-4.5,0.7-8.2,3.1-11.9,5.5c-12.3,7.8-24.8,10-38.3,2.6c-6.5-3.6-11.4-0.9-10.2,6c1.2,7.3-2.1,6.6-7,7.3
		c-18.7,2.7-38-0.5-56.4,5.5c-2,0.7-5.7-0.2-5.8,2.1c-0.2,10.7-8.1,7.3-13.6,7.5c-9.5,0.4-19.3-1.4-28.5,0.4
		c-14.6,2.9-29.7,2.1-44,7.9c-13.8,5.5-29.4,4.8-43.3,10.8c-13.7,5.9-27.6,8-42.2,2.3c-6.5-2.5-12.4,2.9-18.2,5.1
		c-6.6,2.5-13.3,2.8-22.1,5.3c7.6-8.4,13.6-14.4,23.3-14.7c3-0.1,6.2-0.6,8.2-3.8c10-16,27.3-19.5,43.4-24.6
		c12.9-4.1,26-8,39.4-10.4c13.2-2.3,25.9-6.7,39.1-8.7c9.4-1.4,17.7-6.4,27.4-6.7c4.7-0.1,4.3-4.7,3-7.3c-3-6-1-10.1,4.4-12.3
		c4.7-1.9,3.7-5.4,3.7-8.7c0-4.4-4.2-2.8-6.5-4c-4.1-2.1-8.4,0.1-12,1.1c-7.5,2-14.8,4.7-22.5,6.5c-5.2,1.2-11.7,2.7-10.9,11.6
		c0.5,5.2-5.4,8.4-9.5,9.5c-15.5,4.2-30,12.2-45.5,15.4c-15.7,3.3-30.3,10.3-46.3,11.9c-14.3,1.4-28,6.1-42,8.9
		c-16.2,3.2-32.5,6.1-48.8,8.6c-1.8,0.3-3.4,1.2-6.2,2.2c8.4-13.8,20.3-21.4,33.4-27.8c6.5-3.2,11.2-9,18.7-11.7
		c11.3-4,21.3-11,31.5-17.4C1294.3,749,1297.3,746,1300.7,742.2z"/>
	<path d="M696.7,452c2-11,4.7-21.9,5.8-32.9c0.9-8.8-0.8-17.9,6.6-24.8c7.8-7.3,15.8-14.4,23.2-22.2c13.3-14.1,20.7-31.1,26.1-49.2
		c1.4-4.6,1.8-9,6.2-12.2c2.4-1.7,4.2-5,4.9-7.9c5.8-22,22.3-40.1,21.3-66.8c6.4,10.9,5.5,11.1,4.2,19.9c-1.8,12.7-3.8,25.9-9.1,37
		c-7,14.6-7.8,29.7-8,44.7c-0.1,9.6-1.1,17.5-5.6,26.2c-4.7,9-7.1,19.4-9.6,29.5c-1.3,5.5-3.9,9.8-8.7,11.6
		c-13.6,4.9-21.1,16.7-30.9,25.8c-8.2,7.6-20.1,10.8-24,23.3C698.2,453.2,697.4,452.6,696.7,452z"/>
	<path d="M1085.8,1020.7c-6.4-5-12.6-9.2-19.8-11.7c-8-2.7-12-0.4-13.7,7.9c-0.5,2.5,0.1,5.1-0.4,7.6c-0.6,3.5-2.7,7.2-5.9,7.8
		c-4.6,0.9-4.1-4.2-4.7-6.8c-1.7-6.9-6.2-12.4-7.5-19.9c-1.3-7.4-9.9-6.2-15.9-3.4c-4.2,2-8,4.1-11.7,0.1c-4-4.3-1.1-8.3,1.8-11.7
		c8.9-10.5,18.9-20.2,26.7-31.4c6.9-9.9,19.1-8.5,27.2-15.4c2.5-2.1,4.7,1.3,5,3.9c1.5,12.7,7,24.5,8.2,37.3c0.9,10,8.6,18,10.2,28
		C1085.7,1015.3,1086.6,1017.3,1085.8,1020.7z"/>
</g>
</svg>
